<svg version="1.1" id="Calque_1" xmlns="http://www.w3.org/2000/svg" xmlns:xlink="http://www.w3.org/1999/xlink" x="0px" y="0px" style="enable-background:new 0 0 100 100;" xml:space="preserve" width="50" viewBox="20 15 60 60"> <title>Aides régionales</title> <g> 	<circle cx="32" cy="69" r="2"></circle> 	<path d="M77.7,54.3C77.7,54.3,77.7,54.3,77.7,54.3l-1-1c-0.9-0.8-2-1.3-3.2-1.3c-0.9,0-1.8,0.2-2.5,0.7 		c-1.5-1-3.5-1-5,0c-0.7-0.5-1.6-0.7-2.5-0.7c-1.2,0-2.4,0.5-3.2,1.3L58.6,55H47c-2.2,0-4.3,0.9-5.8,2.4L39,59.6 		c-0.3,0.3-0.6,0.4-1,0.4v-2c0-0.6-0.4-1-1-1H27c-0.6,0-1,0.4-1,1s0.4,1,1,1h9v14h-9c-0.6,0-1,0.4-1,1s0.4,1,1,1h10c0.6,0,1-0.4,1-1 		v-1h12h0.3l14-4c0.2,0,0.3-0.1,0.4-0.2l13-13C78.1,55.4,78.1,54.7,77.7,54.3z M61.7,54.7c0.5-0.5,1.1-0.7,1.8-0.7 		c0.3,0,0.6,0.1,0.9,0.2L61,57.6c0-0.2,0-0.4,0-0.6v-1c0-0.2-0.1-0.3-0.1-0.5L61.7,54.7z M66.7,54.7c0.5-0.5,1.1-0.7,1.8-0.7 		c0.3,0,0.6,0.1,0.9,0.2L62.6,61h-2.2L66.7,54.7z M63.5,67.1L49.9,71H38v-9c0.9,0,1.8-0.4,2.4-1l2.2-2.2c1.2-1.2,2.8-1.8,4.4-1.8h12 		c0,1.7-1.3,3-3,3h-5.5c-0.8,0-1.5,0.7-1.5,1.5s0.7,1.5,1.5,1.5H63c0.3,0,0.5-0.1,0.7-0.3l8-8c1-0.9,2.6-0.9,3.6,0l0.3,0.3 		L63.5,67.1z"></path> 	<path d="M32.4,34.1l5,2.4l0,0.1c-0.1,0.2-0.1,0.5,0,0.8l1.9,4L38.6,48l-0.6,0.7c-0.2,0.3-0.3,0.6-0.3,0.9 		c0,0.3,0.2,0.6,0.4,0.8l3.3,2.1l0.2,0c0.1,0,0.2,0,0.4,0l2.6,0.2c0.3,0,0.6-0.1,0.9-0.3l2.7,1.3l0.2,0.1c0.1,0,0.2,0,0.3,0 		c0.1,0,0.1,0,0.2,0l2.2-0.2c0.7-0.1,1.2-0.7,1.1-1.3l-0.2-1.2l1.5-1.3l4.7,1.3c0.3,0.1,0.7,0.1,1-0.1l3.5-2.7l0.8-1.2 		c0.2-0.4,0.2-0.9,0-1.2l-0.2-0.3c-0.2-0.4-0.6-0.6-1-0.6L61.9,45l0-0.2c0-0.1,0-0.3,0-0.5l-0.2-0.7c0-0.1,0-0.2-0.1-0.2 		c0.2-0.2,0.3-0.5,0.3-0.8V42c0-0.3-0.1-0.6-0.3-0.8l-0.4-0.4l0.1-0.2c0.2-0.4,0.2-0.9,0-1.3l-0.8-1.5c-0.1-0.1-0.2-0.2-0.3-0.3 		l1.3-2l0.6-0.4c0.3-0.2,0.5-0.5,0.5-0.9l0.7-4.6c0.1-0.6-0.3-1.2-0.9-1.4l-5.7-1.6l-3-1.4l-3.4-3.2c-0.3-0.4-0.8-0.6-1.3-0.4 		l-1.9,0.6c-0.5,0.2-0.9,0.7-0.9,1.2l0,1.6l-2.7,1.4c-0.3,0.2-0.5,0.4-0.6,0.7c-0.1,0.2-0.1,0.4,0,0.6l-1.2-0.2L41.6,27 		c-0.1-0.6-0.6-1-1.2-1h-0.9c-0.7,0-1.2,0.6-1.2,1.3l0.7,2.7h-1.2l-0.4-0.5C37,29,36.5,28.8,36,29l-3.6,0.8c-0.6,0.1-1.1,0.8-1,1.4 		l0.2,1.9C31.7,33.5,32,33.9,32.4,34.1z M36,31l0.3,0.4c0.2,0.3,0.6,0.5,1,0.5h2.9l0.2-0.1c0.5-0.3,0.8-0.9,0.7-1.5l-0.3-1.1 		c0,0,0,0,0,0l2,0.4c0.2,0.1,0.5,0.1,0.7,0l1.2-0.5c0.2-0.1,0.4-0.3,0.5-0.5c0.2-0.3,0.2-0.6,0.1-0.9l2.2-1.2 		c0.4-0.2,0.7-0.7,0.7-1.1V24l0.9-0.3l3.4,3.2l0.4,0.3h0.2l2.9,1.3l5.3,1.5l-0.5,3.6L60.3,34c-0.1,0.1-0.3,0.2-0.3,0.4l-1.9,3.1 		c-0.3,0.4-0.4,0.9-0.1,1.4c0.2,0.3,0.4,0.5,0.8,0.6c0.2,0,0.3,0.1,0.5,0l0.3,0.5l-0.1,0.1c-0.3,0.4-0.3,1.1,0,1.5l0.4,0.4 		c-0.1,0.1-0.2,0.1-0.3,0.2c-0.2,0.2-0.4,0.6-0.3,0.9s0.2,0.6,0.4,0.9l0.3,0.3l0.1,0.3l-0.1,0.7l0,0.2c0,0.7,0.5,1.2,1.1,1.3 		l0.7,0.1l-2.9,2.2L54,47.9c-0.3-0.1-0.7-0.1-1,0.1l-2.4,1.9c-0.3,0.3-0.5,0.7-0.4,1.1l0.1,0.8l-1.4,0.1l-3-1.4l-0.3-0.1l-0.2,0 		c0,0-0.1,0-0.1,0c-0.3,0-0.6,0.1-0.8,0.3c-0.1,0-0.1,0.1-0.2,0.2l-2.1-0.1l-2.1-1.3l0.2-0.2c0.2-0.2,0.3-0.4,0.3-0.7l0.7-6.9 		c0-0.2,0-0.4,0-0.6l-1.9-4.1l0.1-0.4c0.1-0.6-0.1-1.1-0.7-1.4l-5.2-2.5l-0.1-0.9L36,31z"></path> </g> </svg>
