<svg xmlns="http://www.w3.org/2000/svg" width="50" viewBox="26 25 50 50"><title>ic-contract</title><g id="Calque_8" data-name="Calque 8"><path d="M60.17,67a1,1,0,0,0-1,1V71H34.31V38.72H59.16V43a1,1,0,0,0,2,0V37.7a1,1,0,0,0-1-1H33.29a1,1,0,0,0-1,1V72a1,1,0,0,0,1,1H60.17a1,1,0,0,0,1-1V68A1,1,0,0,0,60.17,67ZM75.8,48.38l-7.13-7.13a1,1,0,0,0-1.44,0l-4.12,4.12a1,1,0,0,0-.3.72,1,1,0,0,0,.23.62l-.45.43-6.31,1.58a1,1,0,0,0-.74.72l-4,14.81a1,1,0,0,0,1,1.28,1,1,0,0,0,.27,0l15.06-4.07a1,1,0,0,0,.73-.76l1.35-6.21.42-.44a1,1,0,0,0,.62.23,1,1,0,0,0,.72-.3l4.12-4.12A1,1,0,0,0,75.8,48.38Zm-7.54,4.87a1,1,0,0,0-.26.48l-1.28,5.88L54,63.06l3.39-12.52,6-1.5a1,1,0,0,0,.45-.25l.67-.63,4.42,4.42ZM71,51.78l-5.69-5.69,2.68-2.68,5.69,5.69ZM60.69,53.62a1.92,1.92,0,0,0-.38,2.16L57.12,59a.68.68,0,1,0,1,1l3.19-3.19a1.92,1.92,0,0,0,.79.18h0a1.93,1.93,0,0,0,1.37-3.3A1.94,1.94,0,0,0,60.69,53.62ZM55,45a1,1,0,0,0-1-1H39.5a1,1,0,1,0,0,2H54A1,1,0,0,0,55,45ZM50.18,48.5H39.5a1,1,0,1,0,0,2H50.18a1,1,0,0,0,0-2Zm1,5.57a1,1,0,0,0-1-1H39.5a1,1,0,1,0,0,2H50.18A1,1,0,0,0,51.19,54.08ZM39.5,63.85a1,1,0,1,0,0,2h7.24a1,1,0,1,0,0-2Z"></path></g></svg>
