<svg xmlns="http://www.w3.org/2000/svg" width="50" viewBox="20 22 60 60"><title>ic-reprise-emploi</title><g id="Calque_33" data-name="Calque 33"><path d="M78.87,65.12H68.65a1.13,1.13,0,0,0-1.13,1.13v5.67h-2.9a4.5,4.5,0,0,0,.63-2.27V60.58a4.53,4.53,0,0,0-2-3.78l-8.92-5.95L56.38,44l2.69,3.77a3.4,3.4,0,0,0,2.77,1.42h9.08a3.4,3.4,0,0,0,0-6.8H63.6L58.94,35.9a3.42,3.42,0,0,0-1-.94,6.8,6.8,0,1,0-7.72-1.37l-1.49-.21a3.18,3.18,0,0,0-.48,0,3.37,3.37,0,0,0-1.81.52l-9.07,5.67a3.37,3.37,0,0,0-1.24,1.37L31.57,50a3.37,3.37,0,0,0-.36,1.52c0,.06,0,.12,0,.18l-4-2.3a1.13,1.13,0,0,0-1.55.42l-4.54,7.86a1.14,1.14,0,0,0,.41,1.55L33.36,66a1.14,1.14,0,0,0,.86.12,1.14,1.14,0,0,0,.69-.53l4.54-7.86A1.14,1.14,0,0,0,39,56.19l-2.88-1.66A3.38,3.38,0,0,0,37.66,53l0-.05,4.08-8.16,3.17-2L42.77,50a5.57,5.57,0,0,0-.19,1.3,1.32,1.32,0,0,0,0,.23V65.28l-4.15,9.33a4.49,4.49,0,0,0,.23,4.11h-9.7a1.13,1.13,0,0,0,0,2.27H57.31a1.13,1.13,0,0,0,1.14-1.13V74.19H68.65a1.13,1.13,0,0,0,1.13-1.13V67.38h9.08a1.13,1.13,0,1,0,0-2.27ZM33.51,63.48l-9.83-5.67,3.4-5.9,9.82,5.67ZM55,24.27a4.54,4.54,0,1,1-4.54,4.54A4.54,4.54,0,0,1,55,24.27ZM40.48,75.54,44.73,66l.1-.46V51.58a1.16,1.16,0,0,0,0-.12,3.57,3.57,0,0,1,.11-.86l3-10a1.13,1.13,0,0,0-1.69-1.29l-6,3.75a1.13,1.13,0,0,0-.41.46L35.63,52l0,0a1.14,1.14,0,0,1-1,.59,1.18,1.18,0,0,1-.51-.12,1.13,1.13,0,0,1-.63-1,1.11,1.11,0,0,1,.12-.5l4.54-9.08a1.08,1.08,0,0,1,.41-.45l9.08-5.67a1.12,1.12,0,0,1,.6-.18h.15l8,1.13a1.12,1.12,0,0,1,.76.47l5,7a1.12,1.12,0,0,0,.92.47h7.91a1.14,1.14,0,0,1,0,2.27H61.85a1.12,1.12,0,0,1-.93-.48l-4-5.64a1.13,1.13,0,0,0-2,.33L51.9,51a1.13,1.13,0,0,0,.46,1.27L62,58.69a2.27,2.27,0,0,1,1,1.89v9.08a2.27,2.27,0,0,1-2.25,2.27h0a2.27,2.27,0,0,1-2.26-2.27V62.39a1.13,1.13,0,0,0-.51-.94l-6.8-4.54a1.13,1.13,0,0,0-1.76.94v8.39a2.28,2.28,0,0,1-.19.92L44.63,77.38a2.27,2.27,0,0,1-2.08,1.35,2.22,2.22,0,0,1-.92-.2,2.27,2.27,0,0,1-1.35-2.08A2.2,2.2,0,0,1,40.48,75.54Zm15.69-2.49v5.68h-9.7a4.48,4.48,0,0,0,.23-.43l4.54-10.21a4.53,4.53,0,0,0,.39-1.84V60l4.54,3v6.65A4.5,4.5,0,0,0,56.86,72a1.11,1.11,0,0,0-.68,1Z"></path></g></svg>
