<svg xmlns="http://www.w3.org/2000/svg" width="50" viewBox="20 20 60 60"><defs><style>.cls-4{fill:#111;}</style></defs><title>ic-activprojet</title><g id="Calque_27" data-name="Calque 27"><path class="cls-10" d="M37.29,61.29,32,66.58V65a1,1,0,1,0-2,0v4a.88.88,0,0,0,0,.16.58.58,0,0,0,.17.4.93.93,0,0,0,.09.14,1,1,0,0,0,.3.2l0,0A1,1,0,0,0,31,70h4a1,1,0,1,0,0-2H33.41l5.29-5.29a1,1,0,0,0-1.42-1.41ZM33.41,32H35a1,1,0,1,0,0-2H31a.88.88,0,0,0-.22,0,1,1,0,0,0-.16,0,1,1,0,0,0-.27.18l-.06,0,0,.06a1,1,0,0,0-.18.26,1,1,0,0,0,0,.2A.89.89,0,0,0,30,31v4a1,1,0,0,0,2,0V33.41l5.29,5.29a1,1,0,0,0,1.42-1.41ZM77.94,49.72a1,1,0,0,0,0-.11,1,1,0,0,0-.15-.22.89.89,0,0,0-.07-.1l-3-3a1,1,0,1,0-1.41,1.42L74.59,49H67a1,1,0,0,0,0,2h7.59l-1.29,1.29a1,1,0,0,0,1.41,1.42l3-3a1,1,0,0,0,.22-.32s0-.06,0-.09a.74.74,0,0,0,0-.57ZM62,39a1,1,0,0,0,.71-.29L68,33.41V35a1,1,0,1,0,2,0V31a.82.82,0,0,0,0-.11,1,1,0,0,0-.05-.27,1,1,0,0,0-.22-.33.95.95,0,0,0-.66-.28H65a1,1,0,1,0,0,2h1.58l-5.29,5.29A1,1,0,0,0,62,39ZM47.71,26.71h0L49,25.41V33a1,1,0,1,0,2,0V25.41l1.29,1.29a1,1,0,0,0,1.42-1.41l-3-3-.08-.05a1,1,0,0,0-.25-.16,1,1,0,0,0-.77,0,1,1,0,0,0-.21.14.93.93,0,0,0-.12.08l-3,3a1,1,0,0,0,1.42,1.42ZM25.41,51H33a1,1,0,0,0,0-2H25.42l1.29-1.29a1,1,0,0,0-1.42-1.41l-3,3h0A.95.95,0,0,0,22,50s0,0,0,0v0a1,1,0,0,0,.29.68l3,3a1,1,0,1,0,1.42-1.41ZM69,64a1,1,0,0,0-1,1v1.59l-5.29-5.29a1,1,0,0,0-1.41,1.41L66.58,68H65a1,1,0,0,0,0,2h4a1,1,0,0,0,.22,0,.73.73,0,0,0,.49-.25,1,1,0,0,0,.22-.33,1,1,0,0,0,0-.11A1,1,0,0,0,70,69V65A1,1,0,0,0,69,64ZM56.9,46.71l-.07,0L54.25,46a1,1,0,0,0-1,.26L50,49.59l-3.29-3.29a1,1,0,0,0-1-.26l-2.59.66-.07,0A4.52,4.52,0,0,0,40,51v9a5,5,0,0,0,4,4.9V77a1,1,0,0,0,1,1H55a1,1,0,0,0,1-1V64.9A5,5,0,0,0,60,60V51A4.53,4.53,0,0,0,56.9,46.71ZM58,60a3,3,0,0,1-2,2.81V53a1,1,0,0,0-2,0V76H51V64a1,1,0,1,0-2,0V76H46V53a1,1,0,1,0-2,0v9.81A3,3,0,0,1,42,60V51a2.52,2.52,0,0,1,1.7-2.38l2-.51,3.6,3.6a1,1,0,0,0,1.41,0l3.6-3.6,2,.51A2.52,2.52,0,0,1,58,51ZM50,46a5,5,0,1,0-5-5A5,5,0,0,0,50,46Zm0-8a3,3,0,1,1-3,3A3,3,0,0,1,50,38Z"></path></g></svg>
