<svg xmlns="http://www.w3.org/2000/svg" width="50" viewBox="14 12 77 77"><title>aide-entreprise</title><g id="Calque_30" data-name="Calque 30"><path d="M15.58,85.73a1,1,0,0,1-.93-1.36l6-15.64A35.09,35.09,0,1,1,32.16,79.46L15.93,85.67A1,1,0,0,1,15.58,85.73ZM49.69,15.92A33.1,33.1,0,0,0,22.57,68a1,1,0,0,1,.11.93L17.31,83l14.58-5.58a1,1,0,0,1,.87.07A33.11,33.11,0,1,0,49.69,15.92Z"></path><path d="M73.1,42.56h0L65.36,26.9a.62.62,0,0,0-.55-.34h-31a.62.62,0,0,0-.55.34L25.57,42.55v0a.61.61,0,0,0-.06.26v0a5.26,5.26,0,0,0,3.34,4.84V69.11H26v1.23H72.7V69.11H69.82V47.7a5.26,5.26,0,0,0,3.34-4.84v0A.61.61,0,0,0,73.1,42.56ZM64.43,27.79,71.55,42.2H63.73L59.6,27.79Zm-6.11,0,.48,1.66L62.44,42.2H54.55L53.42,27.79ZM62.6,43.44a4,4,0,0,1-8,0ZM46.48,27.79h5.7l.29,3.73.83,10.69h-8Zm6.83,15.65a4,4,0,0,1-8,0Zm-13-15.65h4.89L44.12,42.2h-7.9l2.13-7.44ZM44,43.44a4,4,0,0,1-8,0ZM34.24,27.79h4.83L34.94,42.2H27.11ZM26.78,43.44h7.94s0,.07,0,.1,0,.2-.08.31a4,4,0,0,1-.13.43c0,.1-.08.19-.13.29a4,4,0,0,1-.21.38l-.18.26a4.06,4.06,0,0,1-.28.33l-.21.22a4.06,4.06,0,0,1-.34.28l-.24.18a4,4,0,0,1-.4.22l-.26.13a4,4,0,0,1-.49.15l-.24.07a3.74,3.74,0,0,1-1.43,0l-.26-.06A4,4,0,0,1,26.78,43.44Zm19.35,21v4.66H37.05V53h9.08Zm22.46,4.66H47.36V64.46H62.64V53h2V51.8H34.33V53h1.49V69.11H30.08V48A5.12,5.12,0,0,0,31.78,48c.11,0,.22-.06.33-.09a5.24,5.24,0,0,0,.63-.2c.12-.05.24-.12.36-.18a5.25,5.25,0,0,0,.51-.28c.12-.08.22-.17.34-.25a5.26,5.26,0,0,0,.43-.35c.1-.1.2-.21.29-.31a5.25,5.25,0,0,0,.35-.42c.08-.12.16-.24.23-.36s.12-.17.17-.27a5.21,5.21,0,0,0,9.27,0,5.21,5.21,0,0,0,9.29,0,5.21,5.21,0,0,0,9.27,0c0,.09.12.17.17.26s.15.25.24.36a5.28,5.28,0,0,0,.35.42c.1.11.19.22.29.31a5.27,5.27,0,0,0,.42.35c.11.09.22.18.34.25a5.24,5.24,0,0,0,.51.28c.12.06.23.13.36.18a5.23,5.23,0,0,0,.62.19c.11,0,.22.07.33.1a5.11,5.11,0,0,0,1.71.06ZM47.36,63.22V53h14V63.22ZM68.81,46.73l-.26.06a3.74,3.74,0,0,1-1.43,0l-.24-.07a4,4,0,0,1-.48-.15l-.27-.13a4,4,0,0,1-.39-.21L65.49,46a4.06,4.06,0,0,1-.33-.27l-.22-.23a4.06,4.06,0,0,1-.27-.33l-.18-.26a4,4,0,0,1-.2-.37c0-.1-.09-.19-.13-.29a4,4,0,0,1-.13-.42c0-.1-.06-.2-.08-.31s0-.07,0-.1h7.94A4,4,0,0,1,68.81,46.73Z"></path></g></svg>
