<svg xmlns="http://www.w3.org/2000/svg" width="50" viewBox="27 25 50 50"><title>ic-mission-international</title><g id="Calque_19" data-name="Calque 19"><path d="M51,72A22,22,0,1,1,61.92,30.9a1.16,1.16,0,0,1-1.15,2,19.69,19.69,0,1,0,9.29,22,1.16,1.16,0,0,1,2.24.58A22,22,0,0,1,51,72Z"></path><path d="M58,58.18c-.32-1.52-1.67-2.27-3-3a9.32,9.32,0,0,1-2-1.37c-3.47-3.47-6.1-2.92-6.9-2.63a4.5,4.5,0,0,0-2.26,1.06c-1-.33-3.23-2-3.23-3.4a1.16,1.16,0,0,0-1.52-1.1c-.52.17-.95.18-1.11,0a.82.82,0,0,1-.07-.78.62.62,0,0,1,.5-.45c.26,0,2,0,3.05,0h1.47c2,0,3.47-3,3.47-4.63a12.11,12.11,0,0,0-.08-1.31,3.35,3.35,0,0,1,0-.51s.12-.21.8-.72c2.27-1.7,3-2.22,2.71-3.22s-1.06-1-1.61-1.1a3.58,3.58,0,0,1-2.13-.9c-.69-.69-1.51-1.35-2.44-1.07a2,2,0,0,0-1.19,1.79l0,.09c-.73,0-1.24-.29-1.93-1.67a1.16,1.16,0,1,0-2.07,1c1.36,2.73,2.91,3,4.51,3a1.68,1.68,0,0,0,1.64-1.36A5.12,5.12,0,0,0,46.35,37l-.68.51c-1.61,1.21-1.83,1.89-1.69,3.32a9.69,9.69,0,0,1,.07,1.08,3.89,3.89,0,0,1-1.16,2.32H41.44c-2.22,0-3,0-3.3,0a2.9,2.9,0,0,0-2.45,2,3.25,3.25,0,0,0-.09,1.89,2.2,2.2,0,0,1-.81-.39h0c0-1.48-1.86-3.49-2.66-4.29L30.5,45a8.85,8.85,0,0,1,2,2.66c0,1.14.83,3.06,6.33,3.08a8.45,8.45,0,0,0,3.64,3.4,9.77,9.77,0,0,0-.71,3.94,1.15,1.15,0,0,0,.06.37,15.44,15.44,0,0,0,1.9,3.69,6.85,6.85,0,0,1,1.52,4,7.45,7.45,0,0,0,.88,4,1.16,1.16,0,1,0,2-1.14,5.13,5.13,0,0,1-.58-2.9,9,9,0,0,0-1.89-5.31,13.82,13.82,0,0,1-1.58-3c.06-4.21,2.1-4.43,2.31-4.44a1.4,1.4,0,0,0,.48-.11c.07,0,1.74-.67,4.49,2.08a11.17,11.17,0,0,0,2.54,1.76c.89.5,1.73,1,1.83,1.46.05.26,0,.89-1,2.22a12.63,12.63,0,0,1-2.92,2.92c-1.46,1.09-2.32,1.88-3.08,5.66a1.16,1.16,0,0,0,.91,1.36l.23,0A1.16,1.16,0,0,0,51,69.91c.62-3.08,1.11-3.45,2.19-4.25a14.84,14.84,0,0,0,3.39-3.38C57.77,60.66,58.22,59.36,58,58.18Z"></path><path d="M63.73,55.8h0c-.65,0-6.32-3.06-9.37-7.16-2-2.74-2.67-5.51-1.87-8.23,1.18-4,4.3-5.46,6.62-5.46a6.88,6.88,0,0,1,4.63,1.78,6.87,6.87,0,0,1,4.63-1.78c2.31,0,5.43,1.43,6.62,5.46,1.05,3.57.13,9.07-10.25,15l-.28.16A1.15,1.15,0,0,1,63.73,55.8ZM59.1,37.26c-1.58,0-3.57,1-4.39,3.8C53,47,61.5,52.11,63.69,53.31c7-4,10.21-8.35,9.07-12.25-.82-2.8-2.81-3.8-4.39-3.8a4.63,4.63,0,0,0-3.68,1.83,1.23,1.23,0,0,1-.95.49h0a1.23,1.23,0,0,1-.95-.49A4.65,4.65,0,0,0,59.1,37.26Z"></path></g></svg>
