<svg xmlns="http://www.w3.org/2000/svg" width="50" viewBox="20 25 60 60"><title>ic-eval-competences</title><g id="Calque_22" data-name="Calque 22"><path d="M52.91,60.89A2,2,0,0,1,51,59.57a.76.76,0,0,0-.49-.47,1.21,1.21,0,0,0-1,.18,2.27,2.27,0,0,1-2.76-.08,2.23,2.23,0,0,1-.49-2.66,1.14,1.14,0,0,0,0-1,.77.77,0,0,0-.56-.4A2,2,0,0,1,44,53.42a2.71,2.71,0,0,1,1.49-2.76,1.42,1.42,0,0,0,.75-1.75,2.46,2.46,0,0,1,.41-2.72,2.56,2.56,0,0,1,2.68-.89,1.46,1.46,0,0,0,1.65-1,2.74,2.74,0,0,1,2.52-1.89,2,2,0,0,1,2,1.32h0a.76.76,0,0,0,.48.47A1.19,1.19,0,0,0,57,44a2.27,2.27,0,0,1,2.76.08,2.23,2.23,0,0,1,.49,2.66,1.14,1.14,0,0,0,0,1,.77.77,0,0,0,.56.4,2,2,0,0,1,1.65,1.72A2.71,2.71,0,0,1,61,52.62a1.42,1.42,0,0,0-.75,1.75,2.46,2.46,0,0,1-.41,2.72,2.56,2.56,0,0,1-2.68.89,1.46,1.46,0,0,0-1.65,1A2.74,2.74,0,0,1,53,60.89Zm-2.71-3.09a2.21,2.21,0,0,1,.69.11,2,2,0,0,1,1.26,1.21.79.79,0,0,0,.79.52,1.52,1.52,0,0,0,1.36-1.05,2.68,2.68,0,0,1,3.2-1.8,1.34,1.34,0,0,0,1.37-.51,1.26,1.26,0,0,0,.26-1.36,2.63,2.63,0,0,1,1.28-3.42A1.48,1.48,0,0,0,61.22,50a.76.76,0,0,0-.65-.68,2,2,0,0,1-1.43-1,2.36,2.36,0,0,1,0-2.07A1,1,0,0,0,59,45a1,1,0,0,0-1.28,0,2.43,2.43,0,0,1-2.08.31,2,2,0,0,1-1.25-1.21.76.76,0,0,0-.8-.52,1.52,1.52,0,0,0-1.36,1.05,2.68,2.68,0,0,1-3.2,1.8,1.35,1.35,0,0,0-1.37.51,1.26,1.26,0,0,0-.26,1.36,2.63,2.63,0,0,1-1.28,3.42,1.48,1.48,0,0,0-.83,1.48.76.76,0,0,0,.65.68,2,2,0,0,1,1.43,1,2.37,2.37,0,0,1,0,2.07,1,1,0,0,0,.16,1.21,1,1,0,0,0,1.28,0A2.57,2.57,0,0,1,50.19,57.81Z"></path><path d="M52.64,55.81a3.46,3.46,0,0,1-3.51-3.59,5,5,0,0,1,4-4.68,3.62,3.62,0,0,1,3,.77,3.53,3.53,0,0,1,1.22,2.76,5,5,0,0,1-4,4.68A4.19,4.19,0,0,1,52.64,55.81Zm1.21-7.09a2.9,2.9,0,0,0-.49,0,3.67,3.67,0,0,0-3,3.46A2.31,2.31,0,0,0,51.15,54a2.4,2.4,0,0,0,2,.49,3.67,3.67,0,0,0,3-3.46,2.31,2.31,0,0,0-.78-1.81A2.29,2.29,0,0,0,53.84,48.72Z"></path><path d="M61.74,51.6l-.1-1.24,11.87-.93a3.35,3.35,0,0,0,1.77-2.06c1.11-2.88.37-6.64-1.64-8.4a3.86,3.86,0,0,0-2.91-1.06L29.07,41.17,29,39.93l41.65-3.26A5.06,5.06,0,0,1,74.46,38c2.37,2.07,3.27,6.45,2,9.78a4.49,4.49,0,0,1-2.62,2.82l-.14,0Z"></path><rect x="31.08" y="52.22" width="13.73" height="1.24" transform="matrix(1, -0.08, 0.08, 1, -4.02, 3.13)"></rect><polygon points="59.88 55.38 59.79 54.14 72.79 53.12 70.21 50.74 71.05 49.83 75.71 54.14 59.88 55.38"></polygon><path d="M30.17,57.7l-.11,0a9.56,9.56,0,0,1-6.17-4.84,10.74,10.74,0,0,1,0-8.57,6.4,6.4,0,0,1,4.16-4.19,5,5,0,0,1,4.5,1.25c2.37,2.07,3.26,6.46,2,9.78a4.31,4.31,0,0,1-2.82,2.82,3.39,3.39,0,0,1-3.08-.85,6.15,6.15,0,0,1-1.33-6.51l.14-.36,3.81-.3.1,1.24-3,.24a5,5,0,0,0,1.11,4.76,2.15,2.15,0,0,0,2,.58,3.11,3.11,0,0,0,2-2.06c1.11-2.88.37-6.64-1.64-8.4a3.75,3.75,0,0,0-3.39-1,5.2,5.2,0,0,0-3.3,3.43A9.53,9.53,0,0,0,25,52.28a8.32,8.32,0,0,0,5.3,4.16l16.51-1.29.1,1.24Z"></path><path d="M49,68.81V67.39c0-3.66.14-5.77.33-9l1.24,0v0c-.16,2.73-.28,4.66-.31,7.46L53,63.46l2.21,2c0-2.93.17-5.2.34-8v-.12l1.24.07v.13c-.19,3.18-.34,5.69-.35,9.31v1.41L53,65.15Z"></path><path d="M49.62,46c-.2-2.5-.76-4-1.93-5a3.69,3.69,0,0,0-2.77-1.06h-.14l-.11-1.24h.16l6-.47a5,5,0,0,1,3.85,1.38A7.79,7.79,0,0,1,57,44.84L55.81,45a6.62,6.62,0,0,0-1.94-4.45,3.66,3.66,0,0,0-2.9-1l-2.91.23a5.78,5.78,0,0,1,.47.39c1.4,1.3,2.1,3,2.32,5.85Z"></path></g></svg>
