<svg xmlns="http://www.w3.org/2000/svg" width="50" viewBox="15 20 70 70"><title>ic-utilisation-vehicule</title><g id="Calque_13" data-name="Calque 13"><path d="M77.46,40.11l-27-14a1,1,0,0,0-.92,0l-27,14A1,1,0,0,0,22,41V73a1,1,0,0,0,2,0V41.61L50,28.13,76,41.61V73a1,1,0,0,0,2,0V41A1,1,0,0,0,77.46,40.11ZM36,56a4,4,0,1,0,4,4A4,4,0,0,0,36,56Zm0,6a2,2,0,1,1,2-2A2,2,0,0,1,36,62Zm28-6a4,4,0,1,0,4,4A4,4,0,0,0,64,56Zm0,6a2,2,0,1,1,2-2A2,2,0,0,1,64,62Zm3.4-9.23-2.34-8.2A6.33,6.33,0,0,0,59,40H41a6.33,6.33,0,0,0-6.06,4.57l-2.34,8.2A8,8,0,0,0,32,66.92V71a3,3,0,0,0,3,3h2a3,3,0,0,0,3-3V68H60v3a3,3,0,0,0,3,3h2a3,3,0,0,0,3-3V66.92a8,8,0,0,0-.6-14.15ZM36.86,45.12A4.33,4.33,0,0,1,41,42H59a4.33,4.33,0,0,1,4.14,3.12l2,7A8,8,0,0,0,64,52H36a8,8,0,0,0-1.13.09ZM38,71a1,1,0,0,1-1,1H35a1,1,0,0,1-1-1V67.74A8,8,0,0,0,36,68h2Zm28,0a1,1,0,0,1-1,1H63a1,1,0,0,1-1-1V68h2a8,8,0,0,0,2-.26Zm-2-5H36a6,6,0,0,1,0-12H64a6,6,0,0,1,0,12Zm-7-6H43a1,1,0,0,0,0,2H57a1,1,0,0,0,0-2Z"></path></g></svg>
