<svg xmlns="http://www.w3.org/2000/svg" width="50" viewBox="23 24 55 55"><title>ic-immersion-pro</title><g id="Calque_21" data-name="Calque 21"><path d="M50,36a6,6,0,0,0,6-6h0a6,6,0,1,0-6,6Zm0-10a4,4,0,0,1,4,4h0a4,4,0,1,1-4-4ZM44,68a1,1,0,0,0-1,1v6a1,1,0,0,0,2,0V69A1,1,0,0,0,44,68Zm12,0a1,1,0,0,0-1,1v6a1,1,0,1,0,2,0V69A1,1,0,0,0,56,68ZM68,46.82A1,1,0,0,0,67,46H61V41.23a4.52,4.52,0,0,0-3.09-4.29l-2.58-.89a1,1,0,0,0-1,.24L50,40.58l-4.29-4.29a1,1,0,0,0-1-.24l-2.59.89A4.51,4.51,0,0,0,39,41.23V46H33a1,1,0,0,0-1,.82l-4,22A1,1,0,0,0,29,70H39v5a1,1,0,1,0,2,0V67a3,3,0,0,1,3-3H56a3,3,0,0,1,3,3v8a1,1,0,1,0,2,0V70H71a1,1,0,0,0,1-1.18ZM41,41.23a2.52,2.52,0,0,1,1.72-2.39l2-.69,4.56,4.56a1,1,0,0,0,1.41,0l4.56-4.56,2,.69A2.53,2.53,0,0,1,59,41.23V46H57V43a1,1,0,0,0-2,0v3H45V43a1,1,0,0,0-2,0v3H41ZM50,62a4,4,0,1,1,4-4h0A4,4,0,0,1,50,62Zm11,6V67a5,5,0,0,0-5-5H54.46A6,6,0,0,0,56,58h0a6,6,0,1,0-10.46,4H44a5,5,0,0,0-5,5v1H30.2l3.64-20H66.16L69.8,68Z"></path></g></svg>
