<svg version="1.1" id="Calque_1" xmlns="http://www.w3.org/2000/svg" xmlns:xlink="http://www.w3.org/1999/xlink" x="0px" y="0px" style="enable-background:new 0 0 100 100;" xml:space="preserve" width="50" viewBox="0 0 100 100"> <path d="M86,57.7l-18.5-13c-0.2-0.1-5.7-3.5-10.5-0.3l1.1,1.7c3.7-2.5,8.2,0.3,8.2,0.3L84,58.7v1.4H55.1c-1.3-2.2-4.3-2.9-6.1-2.9 	c-1.8,0-4.8,0.7-6.1,2.9h-29v-1.4l17.5-12.4c0,0,4.5-2.8,8.3-0.3l1.1-1.7c-4.9-3.2-10.2,0.1-10.5,0.3l-18.4,13v4.4h0.2 	C14.9,77,25.3,78,28.2,78c0.3,0,0.5,0,0.6,0c5.7,0,10.1-2.7,12.9-7.7c2.1-3.7,2.4-7.4,2.5-7.7c0-0.2,0-0.3,0-0.5h9.5 	c0,0.2,0,0.4,0,0.6c0,0.2,0.4,3.9,2.5,7.6c2.8,5,7.2,7.7,12.9,7.7c1.1,0.1,13.6,0.6,16.7-15.9H86V57.7z M49,59.2c0.1,0,2,0,3.3,0.9 	h-6.7C47,59.3,48.8,59.2,49,59.2z M42.2,62.5c0,0.4-0.5,3.7-2.2,6.8c-2.4,4.4-6.2,6.6-11.2,6.6l-0.1,0c-0.5,0.1-11.5,1-14.6-13.9 	h28.1C42.2,62.2,42.2,62.4,42.2,62.5z M69.3,76l-0.1,0c-5,0-8.7-2.2-11.2-6.6c-1.9-3.4-2.2-6.8-2.2-6.8c0-0.2,0-0.3,0-0.5h28.1 	C80.8,77,69.7,76.1,69.3,76z"></path> <g> 	<path d="M21.5,40.5c0,0-0.1,0-0.1,0c-0.8-0.1-1.6,0.5-1.7,1.3c0,0,0,0.1,0,0.1c-0.1,0.8,0.5,1.6,1.4,1.7c0.1,0,0.2,0,0.3,0 		c0.9,0.1,1.6-0.6,1.6-1.4C23,41.3,22.3,40.6,21.5,40.5z"></path> 	<path d="M22.9,35.7c-0.9-0.3-1.8,0.2-2,1.1c0,0,0,0.1,0,0.1c-0.2,0.8,0.2,1.7,1,1.9c0,0,0.1,0,0.1,0c0.9,0.3,1.8-0.2,2-1.1 		S23.8,36,22.9,35.7z"></path> 	<path d="M25.3,31.7c-0.8-0.5-1.8-0.3-2.3,0.5c0,0,0,0.1,0,0.1c-0.4,0.8-0.1,1.7,0.7,2.1c0,0,0.1,0.1,0.1,0.1 		c0.7,0.4,1.7,0.1,2.1-0.6C26.2,33,26,32.1,25.3,31.7z"></path> 	<path d="M28.2,27.5c-0.7-0.5-1.8-0.4-2.3,0.4c0,0-0.1,0.1-0.1,0.1c-0.5,0.7-0.3,1.6,0.4,2.1c0,0,0,0,0.1,0.1 		c0.7,0.5,1.8,0.4,2.3-0.4S28.9,28.1,28.2,27.5z"></path> 	<path d="M29.5,24.2C29.4,24.2,29.4,24.3,29.5,24.2c-0.7,0.7-0.7,1.7-0.1,2.3c0,0,0,0,0.1,0.1c0.6,0.7,1.7,0.7,2.3,0 		c0.7-0.6,0.7-1.7,0-2.3C31.1,23.6,30.1,23.6,29.5,24.2z"></path> 	<path d="M33.6,21.2c0,0-0.1,0-0.1,0.1c-0.7,0.5-0.9,1.4-0.4,2.1c0,0,0,0,0,0.1c0.5,0.7,1.5,0.9,2.3,0.4s0.9-1.5,0.4-2.3 		C35.4,20.9,34.4,20.7,33.6,21.2z"></path> 	<path d="M40.2,19.9c-0.3-0.8-1.2-1.2-2-0.9c0,0,0,0-0.1,0c-0.8,0.3-1.1,1.2-0.8,2l0,0.1c0,0.1,0,0.1,0.1,0.2 		c0.4,0.8,1.3,1.1,2.1,0.7s1.1-1.3,0.7-2.1C40.2,20,40.2,19.9,40.2,19.9z"></path> 	<path d="M45,18.7c-0.2-0.8-1-1.4-1.8-1.2c0,0-0.1,0-0.1,0c-0.8,0.2-1.3,1.1-1.1,1.9c0,0.2,0,0.3,0.1,0.5c0.3,0.8,1.2,1.2,2,0.9 		s1.2-1.2,0.9-2C45,18.8,45,18.8,45,18.7z"></path> 	<path d="M48.3,17c0,0-0.1,0-0.1,0c-0.8,0.1-1.5,0.8-1.4,1.7c0,0.1,0,0.2,0,0.2c0.1,0.9,0.8,1.5,1.7,1.4c0.9-0.1,1.5-0.8,1.4-1.7 		c0,0,0-0.1,0-0.1C49.8,17.6,49.1,17,48.3,17z"></path> 	<path d="M53.4,17.3c0,0-0.1,0-0.1,0c-0.8-0.1-1.6,0.6-1.7,1.4l0,0c0,0.1,0,0.1,0,0.2c-0.1,0.9,0.6,1.6,1.4,1.7 		c0.9,0.1,1.6-0.6,1.7-1.4c0,0,0-0.1,0-0.1C54.8,18.2,54.3,17.5,53.4,17.3z"></path> 	<path d="M58.4,18.6c0,0-0.1,0-0.1,0c-0.8-0.2-1.7,0.3-1.9,1.1l0-0.1c0,0,0,0.1-0.1,0.1c-0.2,0.8,0.2,1.7,1.1,1.9s1.7-0.2,1.9-1.1 		c0,0,0-0.1,0-0.1C59.6,19.7,59.2,18.8,58.4,18.6z"></path> 	<path d="M63.1,20.6c0,0-0.1,0-0.1-0.1c-0.8-0.4-1.7,0-2,0.8c0,0,0,0,0,0.1c-0.4,0.8,0,1.8,0.8,2.2c0.8,0.4,1.8,0,2.2-0.8 		S63.9,21,63.1,20.6z"></path> 	<path d="M67.4,23.5C67.4,23.5,67.3,23.4,67.4,23.5c-0.8-0.6-1.8-0.4-2.2,0.3c0,0,0,0,0,0.1c-0.5,0.7-0.4,1.8,0.4,2.3 		c0.7,0.5,1.8,0.4,2.3-0.4S68.1,24,67.4,23.5z"></path> 	<path d="M71.1,27C71.1,27,71,27,71.1,27c-0.7-0.7-1.7-0.7-2.3-0.1c0,0,0,0-0.1,0.1c-0.6,0.6-0.7,1.7,0,2.3c0.6,0.6,1.7,0.7,2.3,0 		C71.7,28.7,71.7,27.7,71.1,27z"></path> 	<path d="M74.1,31.1C74.1,31.1,74.1,31.1,74.1,31.1c-0.6-0.8-1.5-0.9-2.2-0.5c0,0-0.1,0-0.1,0c-0.7,0.5-0.9,1.5-0.4,2.3 		s1.5,0.9,2.3,0.4S74.7,31.9,74.1,31.1z"></path> 	<path d="M75.7,37.9c0.8-0.4,1.2-1.4,0.8-2.2c0,0,0-0.1-0.1-0.1c-0.4-0.8-1.3-1.1-2-0.7c0,0-0.1,0-0.1,0c-0.8,0.4-1.2,1.4-0.8,2.2 		C73.9,37.9,74.8,38.3,75.7,37.9z"></path> 	<path d="M77.9,40.7c0,0,0-0.1,0-0.1c-0.2-0.8-1.1-1.3-1.9-1.1c0,0-0.1,0-0.1,0c-0.8,0.2-1.4,1-1.2,1.8c0.2,0.8,1,1.4,1.9,1.2 		C77.5,42.4,78.1,41.6,77.9,40.7z"></path> </g> </svg>
